<svg xmlns="http://www.w3.org/2000/svg" version="1.1" xmlns:xlink="http://www.w3.org/1999/xlink" xmlns:svgjs="http://svgjs.com/svgjs" width="480" height="480"><svg id="SvgjsSvg1001" data-name="Layer 1" xmlns="http://www.w3.org/2000/svg" viewBox="0 0 480 480"><defs><style>.cls-1{fill:#fff;}.cls-2{fill:#dfdfdf;}.cls-3{fill:#f45d5d;}.cls-4{fill:#db5a5a;}.cls-5{fill:#4c4b4b;}</style></defs><title>githubpoke</title><path class="cls-1" d="M361.51,398.78a41,41,0,0,0,9.61-1.12.34.34,0,0,0-.06.06,217.74,217.74,0,0,1-70.72,41.09A32.81,32.81,0,0,0,301,434V384.44A66.09,66.09,0,0,0,298,365.83a0,0,0,0,0,0-.05h22.81A41.6,41.6,0,0,0,361.51,398.78Z"></path><path class="cls-1" d="M385.38,351.73a27.3,27.3,0,0,1,.67,5.48,24.81,24.81,0,0,1-1.54,8.57,22.74,22.74,0,0,1-1.56,3.35c-.29.53-.61,1.06-.95,1.56v0c-.34.49-.7,1-1.06,1.47a17.15,17.15,0,0,1-1.18,1.4c-.2.23-.41.44-.62.67h0a24,24,0,0,1-5.8,4.42c-.54.29-1.09.57-1.65.82s-1.13.49-1.72.7c-.33.13-.66.24-1,.34s-.66.21-1,.3l-1,.25-.15,0c-.32.08-.64.14-1,.19a11.36,11.36,0,0,1-1.19.18c-.31,0-.62.08-.93.11l-.6,0c-.21,0-.41,0-.62,0s-.64,0-1,0-.66,0-1,0-.41,0-.62,0a4.91,4.91,0,0,1-.66-.06,8,8,0,0,1-.84-.08c-.41-.05-.82-.11-1.22-.19a9.35,9.35,0,0,1-.92-.18c-.4-.08-.78-.17-1.17-.28s-.68-.19-1-.3-.67-.21-1-.34c-.59-.21-1.16-.44-1.72-.7s-1.11-.53-1.65-.82a23.83,23.83,0,0,1-5.8-4.42c-.22-.24-.42-.45-.62-.68a20.43,20.43,0,0,1-1.72-2.12c-.17-.24-.35-.49-.52-.75v0c-.33-.5-.65-1-1-1.56a22.69,22.69,0,0,1-1.55-3.35,24.81,24.81,0,0,1-1.54-8.57h0a24.35,24.35,0,0,1,1.54-8.57,23.68,23.68,0,0,1,1.55-3.35c.29-.53.61-1.05.95-1.56h0c.34-.51.69-1,1.06-1.47s.76-.95,1.18-1.41l.62-.67c.21-.22.42-.44.65-.64a7.68,7.68,0,0,1,.67-.61,20.67,20.67,0,0,1,2.15-1.71c.25-.18.5-.35.76-.51a18.21,18.21,0,0,1,1.57-.95c.53-.3,1.09-.58,1.65-.83s1.14-.48,1.71-.7c.33-.12.66-.24,1-.34l1-.29a11.57,11.57,0,0,1,1.16-.29c.31-.06.61-.13.92-.18l.7-.11a4.34,4.34,0,0,1,.52-.08c.29,0,.57-.07.84-.08l.67-.06c.2,0,.41,0,.61,0l1,0,1,0c.2,0,.41,0,.61,0l.67.06c.27,0,.55,0,.84.08a4.34,4.34,0,0,1,.52.08l.7.11.92.18a11.57,11.57,0,0,1,1.16.29l1,.29c.34.1.67.22,1,.34.58.22,1.16.44,1.71.7s1.13.53,1.66.83a22.68,22.68,0,0,1,3.07,2h0a23,23,0,0,1,2.07,1.77h0a7.73,7.73,0,0,1,.64.64l.63.67a21.81,21.81,0,0,1,1.72,2.12c.17.25.35.5.52.76h0c.34.51.66,1,1,1.56.15.26.29.53.43.81a25.07,25.07,0,0,1,1.12,2.54A25.5,25.5,0,0,1,385.38,351.73Z"></path><path class="cls-1" d="M440,284.4a0,0,0,0,1,0,0A214.94,214.94,0,0,1,413,348.64a.11.11,0,0,1,0,.05H402.24v-.05h0a41.5,41.5,0,0,0-9.62-19c-.68-.76-1.39-1.48-2.11-2.19a40.19,40.19,0,0,0-6.77-5.34,41.58,41.58,0,0,0-62.81,26.57h-30c-6.09-11.05-14.54-20.62-24.28-25.71,61.63-6.38,95.77-33.48,104.49-71.62a104.9,104.9,0,0,1,13.25,1.91c.8.17,1.59.34,2.37.53.56.12,1.11.25,1.65.4a4.43,4.43,0,0,1,.49.13c.6.14,1.2.3,1.8.47q4.33,1.19,8.5,2.73c.57.2,1.15.42,1.71.64,1.34.51,2.65,1.05,4,1.62A107.21,107.21,0,0,1,440,284.4Z"></path><path class="cls-1" d="M445.87,233.86a215.58,215.58,0,0,1-1.71,27.29,126.06,126.06,0,0,0-70.83-30.08v-.47c0-21-8.91-41.3-24.05-58.42,5.06-17,11.41-51.86-1.85-65.1-32.64,0-52.34,21.19-57,26.86a164.34,164.34,0,0,0-105.7,0c-4.73-5.7-24.42-26.82-57-26.82-13.2,13.22-6.91,48-1.92,65-15.23,17.16-24.19,37.51-24.19,58.55,0,48.9,34.54,84.91,106.92,92.35-12.56,6.55-22.82,20.45-28.77,35.53a207.61,207.61,0,0,1-30.63,2.2c-16.18,0-20.25-2.57-28.9-13.93s-17.93-19-29.07-22.14c-6-.63-10,4.06-4.79,8.17,17.65,12.35,18.87,32.55,26,45.76,6.42,11.88,19.64,18.27,34.51,18.27h27.31V434a31.85,31.85,0,0,0,1.67,10.56C81.3,420.94,11.17,335.71,11.17,233.86c0-120,97.32-217.35,217.35-217.35S445.87,113.83,445.87,233.86Z"></path><path class="cls-1" d="M467.39,365.78v.05c-.07.83-.15,1.67-.24,2.51s-.19,1.62-.3,2.42a2.76,2.76,0,0,1-.06.4q-.09.78-.21,1.56c-.08.52-.17,1-.25,1.55s-.21,1.22-.32,1.82c-.14.77-.29,1.53-.45,2.29-.11.56-.23,1.1-.35,1.64-.06.24-.1.47-.16.69-.1.43-.19.85-.3,1.27-.14.59-.29,1.17-.45,1.76s-.34,1.31-.53,1.95-.37,1.32-.58,2q-.84,2.8-1.84,5.54c-.44,1.22-.92,2.45-1.4,3.65l-.3.71c-.29.71-.6,1.42-.92,2.13s-.66,1.5-1,2.24-.63,1.31-.94,2c-.41.81-.82,1.63-1.25,2.43s-.77,1.44-1.17,2.15-.8,1.43-1.22,2.13-.82,1.4-1.25,2.1c-1.3,2.07-2.64,4.1-4.07,6.09-.46.64-.93,1.29-1.41,1.92a107,107,0,0,1-191.92-52.33c-.09-.85-.18-1.7-.25-2.56v-.05h66.6a41.6,41.6,0,0,0,40.67,33,41,41,0,0,0,9.61-1.12,41.63,41.63,0,0,0,24.72-17,.06.06,0,0,0,0-.05,40.58,40.58,0,0,0,2.26-3.7s0,0,0,0a42.88,42.88,0,0,0,1.87-4c.38-.91.72-1.83,1-2.78a42,42,0,0,0,1.16-4.34Z"></path><path class="cls-2" d="M467.39,365.78v.05c-.07.83-.15,1.67-.24,2.51s-.19,1.62-.3,2.42a2.76,2.76,0,0,1-.06.4q-.09.78-.21,1.56c-.08.52-.17,1-.25,1.55s-.21,1.22-.32,1.82c-.14.77-.29,1.53-.45,2.29-.11.56-.23,1.1-.35,1.64-.06.24-.1.47-.16.69-.1.43-.19.85-.3,1.27-.14.59-.29,1.17-.45,1.76s-.34,1.31-.53,1.95-.37,1.32-.58,2q-.84,2.8-1.84,5.54c-.44,1.23-.91,2.45-1.4,3.65l-.3.71c-.29.71-.6,1.42-.92,2.13s-.66,1.5-1,2.24-.63,1.31-.94,2c-.41.81-.82,1.63-1.25,2.43s-.77,1.44-1.17,2.15-.8,1.43-1.22,2.13-.82,1.4-1.25,2.1c-1.27,2.08-2.63,4.1-4.07,6.09a105.79,105.79,0,0,1-10.52,12.55l-1.46,1.46c-.48.49-1,1-1.48,1.44l-1.52,1.4c-1.52,1.39-3.09,2.74-4.69,4-1.07.86-2.17,1.71-3.26,2.54-.54.41-1.07.79-1.61,1.18a1.25,1.25,0,0,1-.24.18c-.49.34-1,.69-1.46,1-.67.48-1.36.94-2.05,1.39q-1.51,1-3.06,1.92c-1.4.87-2.83,1.71-4.29,2.48-.43.25-.87.49-1.31.72-.61.34-1.22.65-1.84,1-2.49,1.25-5,2.42-7.62,3.48-.65.26-1.29.53-2,.77a97.73,97.73,0,0,1-10.34,3.41c-.53.15-1.07.3-1.61.43a.71.71,0,0,1-.24.06l-1.72.43a2.27,2.27,0,0,0-.25.06s0,0,0,0l.12-.06c31-17,53.07-52.68,55.71-94.81v-.05Z"></path><path class="cls-1" d="M386.05,357.21a24.81,24.81,0,0,1-1.54,8.57,22.74,22.74,0,0,1-1.56,3.35c-.3.53-.62,1.06-.95,1.56v0c-.34.49-.7,1-1.06,1.47a17.15,17.15,0,0,1-1.18,1.4c-.2.23-.41.44-.62.67h0a25.37,25.37,0,0,1-5.8,4.42c-.54.29-1.09.57-1.65.82s-1.13.49-1.72.7c-.33.13-.66.24-1,.34s-.66.21-1,.3l-1,.25-.15,0c-.32.08-.64.14-1,.19a11.36,11.36,0,0,1-1.19.18c-.31,0-.62.08-.93.11l-.6,0c-.21,0-.41,0-.62,0s-.64,0-1,0-.66,0-1,0-.41,0-.62,0a4.91,4.91,0,0,1-.66-.06,8,8,0,0,1-.84-.08c-.41-.05-.82-.11-1.22-.19a9.35,9.35,0,0,1-.92-.18c-.4-.08-.78-.17-1.17-.28s-.68-.19-1-.3-.67-.21-1-.34c-.59-.21-1.16-.44-1.72-.7s-1.11-.53-1.65-.82a23.83,23.83,0,0,1-5.8-4.42c-.22-.24-.42-.45-.62-.68a20.43,20.43,0,0,1-1.72-2.12c-.17-.24-.35-.49-.52-.75v0c-.33-.5-.65-1-1-1.56a22.69,22.69,0,0,1-1.55-3.35,24.81,24.81,0,0,1-1.54-8.57h0a24.35,24.35,0,0,1,1.54-8.57,23.68,23.68,0,0,1,1.55-3.35c.29-.53.61-1.05.95-1.56h0c.34-.5.7-1,1.06-1.47s.76-.95,1.18-1.41l.62-.67c.21-.22.42-.44.65-.64a7.68,7.68,0,0,1,.67-.61,25.18,25.18,0,0,1,2.15-1.71c.25-.18.5-.35.76-.51.51-.34,1-.66,1.57-.95s1.09-.58,1.65-.83,1.14-.48,1.71-.7c.33-.12.66-.24,1-.34l1-.29a11.57,11.57,0,0,1,1.16-.29c.31-.06.61-.13.92-.18l.7-.11a4.34,4.34,0,0,1,.52-.08c.29,0,.57-.07.84-.08l.67-.06c.2,0,.41,0,.61,0l1,0,1,0c.2,0,.41,0,.61,0l.67.06c.27,0,.55,0,.84.08a4.34,4.34,0,0,1,.52.08l.7.11.92.18a11.57,11.57,0,0,1,1.16.29l1,.29c.34.1.67.22,1,.34.58.22,1.16.44,1.71.7s1.13.53,1.66.83a22.68,22.68,0,0,1,3.07,2h0a23,23,0,0,1,2.07,1.77h0a7.73,7.73,0,0,1,.64.64l.63.67a21.81,21.81,0,0,1,1.72,2.12c.17.25.35.5.52.76h0c.34.51.66,1,1,1.56.15.26.29.53.43.81a25.07,25.07,0,0,1,1.12,2.54,25.5,25.5,0,0,1,.92,3.09A27.3,27.3,0,0,1,386.05,357.21Z"></path><path class="cls-3" d="M468.83,348.69H402.24v-.05a41.37,41.37,0,0,0-9.66-19c-.68-.76-1.39-1.48-2.11-2.19a40.19,40.19,0,0,0-6.77-5.34,41.58,41.58,0,0,0-62.81,26.57H255.63A107.91,107.91,0,0,1,258,333.58c.38-1.64.79-3.25,1.25-4.86.68-2.4,1.45-4.78,2.28-7.11q.84-2.33,1.79-4.62c.94-2.27,2-4.52,3.06-6.71.37-.74.75-1.46,1.12-2.19.28-.54.58-1.08.87-1.62.59-1.07,1.2-2.14,1.82-3.19q.46-.78,1-1.56c.53-.86,1.08-1.72,1.64-2.57,1.12-1.7,2.28-3.37,3.49-5s2.46-3.23,3.77-4.78c0,0,0,0,0,0,.66-.78,1.32-1.54,2-2.3q2-2.28,4.15-4.44,1.71-1.72,3.5-3.37c1.19-1.11,2.4-2.17,3.63-3.22q2.81-2.34,5.75-4.51c.66-.49,1.32-.95,2-1.42q3-2.1,6.14-4h0c1-.64,2.11-1.25,3.18-1.84s2.15-1.17,3.24-1.73,2.2-1.09,3.31-1.62,2.24-1,3.37-1.5h0q4.53-1.94,9.27-3.46a107.41,107.41,0,0,1,32.6-5q4.49,0,8.87.37a104.9,104.9,0,0,1,13.25,1.91c.8.17,1.59.34,2.37.53.56.12,1.11.25,1.65.4a4.43,4.43,0,0,1,.49.13c.6.14,1.2.3,1.8.47q4.33,1.19,8.5,2.73c.57.2,1.15.42,1.71.64,1.34.51,2.65,1.05,4,1.62A107.21,107.21,0,0,1,440,284.4c1.11,1.16,2.2,2.36,3.25,3.59s2.1,2.48,3.1,3.76,2,2.57,2.92,3.88a107.36,107.36,0,0,1,8.83,14.66c.64,1.27,1.23,2.56,1.82,3.85.15.37.32.73.48,1.11.42,1,.83,1.93,1.2,2.91.1.23.21.47.3.71.2.49.38,1,.56,1.49s.29.74.4,1.11a.07.07,0,0,1,0,.06c.14.38.29.77.42,1.17.06.14.1.3.15.45.35,1,.68,2,1,3.07,0,.13.09.26.12.39.1.31.2.63.29.93.24.82.47,1.62.68,2.44.05.14.08.3.13.45v0c.13.5.26,1,.38,1.5s.25,1,.37,1.5c.17.7.32,1.41.47,2.12s.3,1.43.43,2.14v0A103,103,0,0,1,468.83,348.69Z"></path><path class="cls-4" d="M468.79,348.64H441.14a129.89,129.89,0,0,0-8.7-39.48c-9.78-24.78-26.91-44.73-48.12-55.94.8.17,1.59.34,2.37.53.56.12,1.11.25,1.65.4a4.43,4.43,0,0,1,.49.13c.6.14,1.2.3,1.8.47q4.33,1.19,8.5,2.73c.57.2,1.15.42,1.71.64,1.33.51,2.65,1.06,4,1.62a107.35,107.35,0,0,1,61.59,73.72q.48,2.12.9,4.26c.14.72.26,1.44.39,2.16.09.53.18,1.08.26,1.62.06.37.12.75.17,1.12.08.54.14,1.08.21,1.61.1.73.18,1.47.26,2.21S468.72,347.91,468.79,348.64Z"></path><path id="SvgjsPath1000" class="cls-5" d="M261.55,321.61c.57-1.55,1.16-3.09,1.79-4.62Q262.4,319.28,261.55,321.61Zm14.75-27.45c1.22-1.63,2.47-3.23,3.77-4.78C278.76,290.93,277.5,292.53,276.3,294.16Zm0,0c-1.21,1.62-2.37,3.29-3.49,5Q274.49,296.6,276.3,294.16Zm24.77-24.05c2-1.39,4.05-2.71,6.14-4Q304.08,268,301.07,270.11ZM385.31,460.7s0,0,0,0,.05,0,.08,0Zm81.54-125.12c.16.72.3,1.45.44,2.18v0C467.15,337,467,336.29,466.85,335.58Zm-64.66,30.2a42,42,0,0,1-1.16,4.34,39.33,39.33,0,0,0,1.16-4.29h65.2v-.05Zm66.64-17.09a103,103,0,0,0-1.54-10.93c.14.7.27,1.41.38,2.12.1.53.19,1.08.26,1.62.06.37.12.75.17,1.12.08.53.15,1.06.21,1.61.1.72.18,1.47.26,2.21s.15,1.47.22,2.2H402.23v.05ZM400,372.9a42.88,42.88,0,0,1-1.87,4A38.31,38.31,0,0,0,400,372.9Zm-1.89,4a40.58,40.58,0,0,1-2.26,3.7A36.55,36.55,0,0,0,398.12,376.93Zm-27,20.73a41,41,0,0,1-9.61,1.12,41.6,41.6,0,0,1-40.67-33h-66.6v.05h66.6a41.55,41.55,0,0,0,75,14.85A41.63,41.63,0,0,1,371.12,397.66Zm14.93-40.45a27.3,27.3,0,0,0-.67-5.48,25.28,25.28,0,0,1,.61,5.48Zm-6.33-16.37c.61.68,1.17,1.38,1.72,2.12A21.81,21.81,0,0,0,379.72,340.84Zm-3.35-3.09c.71.56,1.41,1.15,2.07,1.77A23,23,0,0,0,376.37,337.75Zm-3.08-2a26.84,26.84,0,0,1,3.07,2A22.68,22.68,0,0,0,373.29,335.75Zm-11.72-20.06a41.34,41.34,0,0,1,22.12,6.38,41.54,41.54,0,0,0-62.85,26.57h0A41.58,41.58,0,0,1,361.57,315.69ZM344,374.26a23.83,23.83,0,0,0,5.8,4.42A25.16,25.16,0,0,1,344,374.26Zm-2.34-2.8a20.43,20.43,0,0,0,1.72,2.12A27,27,0,0,1,341.65,371.46Zm120.76-51.1c.14.37.29.74.4,1.11a.07.07,0,0,1,0,.06C462.7,321.13,462.56,320.75,462.41,320.36Z"></path></svg><style>@media (prefers-color-scheme: light) { :root { filter: contrast(1) brightness(0.2); } }
@media (prefers-color-scheme: dark) { :root { filter: contrast(1) brightness(1); } }
</style></svg>